<?xml version="1.0" encoding="UTF-8"?>
<svg width="512" height="512" viewBox="0 0 512 512" fill="none" xmlns="http://www.w3.org/2000/svg">
  <rect width="512" height="512" rx="256" fill="url(#gradient)" />
  <path d="M256 128C185.307 128 128 185.307 128 256C128 326.693 185.307 384 256 384C326.693 384 384 326.693 384 256C384 185.307 326.693 128 256 128ZM276.8 332.8H235.2V291.2H276.8V332.8ZM297.6 235.947C295.68 239.787 292.907 243.2 289.28 246.187C285.653 249.173 281.6 251.947 277.12 254.507C272.64 257.067 268.373 259.627 264.32 262.187C260.267 264.747 256.853 267.733 254.08 271.147C251.307 274.56 249.813 278.613 249.6 283.307H236.8V279.04C236.8 275.2 237.653 271.787 239.36 268.8C241.067 265.813 243.413 263.04 246.4 260.48C249.387 257.92 252.8 255.573 256.64 253.44C260.48 251.307 264.32 249.173 268.16 247.04C272 244.907 275.413 242.56 278.4 240C281.387 237.44 283.733 234.453 285.44 231.04C287.147 227.627 288 223.573 288 218.88C288 212.48 285.867 207.36 281.6 203.52C277.333 199.68 271.573 197.76 264.32 197.76C257.067 197.76 251.093 199.893 246.4 204.16C241.707 208.427 238.72 214.187 237.44 221.44L224 217.6C226.133 206.933 230.827 198.613 238.08 192.64C245.333 186.667 254.293 183.68 264.96 183.68C275.627 183.68 284.373 186.88 291.2 193.28C298.027 199.68 301.44 207.787 301.44 217.6C301.44 225.28 300.16 232.107 297.6 235.947Z" fill="white"/>
  <defs>
    <linearGradient id="gradient" x1="0" y1="0" x2="512" y2="512" gradientUnits="userSpaceOnUse">
      <stop offset="0%" stopColor="#38bdf8"/>
      <stop offset="100%" stopColor="#a855f7"/>
    </linearGradient>
  </defs>
</svg> 